<svg preserveAspectRatio="none" overflow="visible" style="display: block;" width="22.6716" height="42.9093" viewBox="0 0 22.6716 42.9093" fill="none" xmlns="http://www.w3.org/2000/svg">
<path id="Vector" d="M16.3712 0.0145086C16.6106 -0.0290173 16.752 0.0253901 16.7956 0.177731L16.9261 0.83062V1.74466L16.8609 1.80995V2.39755L16.5997 3.83391L16.0774 5.0744L15.4898 5.85786L13.3353 8.14297C12.7128 8.89162 12.1905 9.74038 11.7683 10.6892L11.3766 11.8644L11.246 13.3661L11.3113 13.4314V14.1496L11.5072 15.0636C11.7379 15.8122 12.0425 16.4869 12.4212 17.0876L14.1187 19.3727L17.0567 22.6371L18.6237 24.6611C19.6813 26.1279 20.5519 27.7819 21.2352 29.623L21.9534 32.104L22.4104 34.7156L22.541 36.8048L22.6063 36.8701V37.98L22.6716 38.0453V42.6155L22.5083 42.9093H22.3778L20.2232 41.1465L15.3919 37.9474C14.1514 37.0768 13.0088 36.1084 11.9642 35.042C10.9761 34.0496 10.1709 32.8744 9.5485 31.5164L9.02619 30.08L8.3733 27.2726L7.7857 25.5751L7.26339 24.5305C6.79766 23.6948 6.19918 22.9875 5.46794 22.4086C4.93258 21.9646 4.32321 21.5947 3.63986 21.2987L2.59523 20.907L1.0283 20.5152L0.1469 19.9603C0.0163222 19.8732 -0.0272037 19.6991 0.0163222 19.438L1.71383 15.5859L3.6725 10.4934L4.45597 8.86115C5.20461 7.49879 6.12954 6.31271 7.23074 5.30291C8.23619 4.39322 9.3461 3.58799 10.5605 2.88722C12.3973 1.82954 14.3342 0.871969 16.3712 0.0145086Z" fill="#292724"/>
</svg>
